<mxfile host="app.diagrams.net" modified="2023-12-19T09:17:08.125Z" agent="Mozilla/5.0 (Windows NT 10.0; Win64; x64) AppleWebKit/537.36 (KHTML, like Gecko) Chrome/120.0.0.0 Safari/537.36" etag="EJ9C1AzZszby4n3PRrh0" version="22.1.11" type="device" pages="2">
  <diagram id="bNPouM0vz3ZF6XvJMi3C" name="Page-2">
    <mxGraphModel dx="2284" dy="1846" grid="1" gridSize="10" guides="1" tooltips="1" connect="1" arrows="1" fold="1" page="1" pageScale="1" pageWidth="850" pageHeight="1100" math="0" shadow="0">
      <root>
        <mxCell id="0" />
        <mxCell id="1" parent="0" />
        <mxCell id="_UdqoNWGLz1dsp_obrf0-1" value="" style="rounded=0;whiteSpace=wrap;html=1;" parent="1" vertex="1">
          <mxGeometry x="-40" y="-580" width="1620" height="1370" as="geometry" />
        </mxCell>
        <mxCell id="FAhRWrUTWEvxomt6O1hr-18" value="" style="rounded=0;whiteSpace=wrap;html=1;" parent="1" vertex="1">
          <mxGeometry x="-540" y="-185" width="350" height="1085" as="geometry" />
        </mxCell>
        <mxCell id="FAhRWrUTWEvxomt6O1hr-16" value="" style="rounded=0;whiteSpace=wrap;html=1;" parent="1" vertex="1">
          <mxGeometry x="-100" y="1080" width="1320" height="580" as="geometry" />
        </mxCell>
        <mxCell id="_s0GfuelR8Pv6rUaRuN1-4" value="" style="rounded=0;whiteSpace=wrap;html=1;fillColor=#dae8fc;strokeColor=#6c8ebf;" parent="1" vertex="1">
          <mxGeometry x="-390" y="260" width="120" height="180" as="geometry" />
        </mxCell>
        <mxCell id="_s0GfuelR8Pv6rUaRuN1-5" value="-Guid Id&lt;br&gt;-string Email&lt;br&gt;-string Password&lt;br&gt;-string FirstName&lt;br&gt;-string LastName&lt;br&gt;-DateTime CreatedAt&lt;br&gt;-string SecurityCode&lt;br&gt;-RegistrationStatus Status" style="rounded=0;whiteSpace=wrap;html=1;fillColor=#dae8fc;strokeColor=#6c8ebf;align=left;" parent="1" vertex="1">
          <mxGeometry x="-390" y="520" width="120" height="200" as="geometry" />
        </mxCell>
        <mxCell id="_s0GfuelR8Pv6rUaRuN1-6" value="Registration Status&lt;br&gt;&lt;br&gt;-Confirmed&lt;br&gt;-Rejected&lt;br&gt;-Expired" style="rounded=0;whiteSpace=wrap;html=1;fillColor=#fff2cc;strokeColor=#d6b656;" parent="1" vertex="1">
          <mxGeometry x="-390" y="730" width="120" height="90" as="geometry" />
        </mxCell>
        <mxCell id="_s0GfuelR8Pv6rUaRuN1-7" value="" style="rounded=0;whiteSpace=wrap;html=1;fillColor=#dae8fc;strokeColor=#6c8ebf;" parent="1" vertex="1">
          <mxGeometry x="-390" y="90" width="120" height="110" as="geometry" />
        </mxCell>
        <mxCell id="_s0GfuelR8Pv6rUaRuN1-9" value="" style="endArrow=classic;startArrow=classic;html=1;rounded=0;entryX=0.5;entryY=1;entryDx=0;entryDy=0;exitX=0.5;exitY=0;exitDx=0;exitDy=0;" parent="1" source="_s0GfuelR8Pv6rUaRuN1-5" target="_s0GfuelR8Pv6rUaRuN1-4" edge="1">
          <mxGeometry width="50" height="50" relative="1" as="geometry">
            <mxPoint x="-340" y="380" as="sourcePoint" />
            <mxPoint x="-290" y="330" as="targetPoint" />
          </mxGeometry>
        </mxCell>
        <mxCell id="_s0GfuelR8Pv6rUaRuN1-10" value="1..1" style="text;html=1;strokeColor=none;fillColor=none;align=center;verticalAlign=middle;whiteSpace=wrap;rounded=0;" parent="1" vertex="1">
          <mxGeometry x="-330" y="440" width="60" height="30" as="geometry" />
        </mxCell>
        <mxCell id="_s0GfuelR8Pv6rUaRuN1-11" value="0..1" style="text;html=1;strokeColor=none;fillColor=none;align=center;verticalAlign=middle;whiteSpace=wrap;rounded=0;" parent="1" vertex="1">
          <mxGeometry x="-330" y="490" width="60" height="30" as="geometry" />
        </mxCell>
        <mxCell id="_s0GfuelR8Pv6rUaRuN1-12" value="" style="endArrow=classic;startArrow=classic;html=1;rounded=0;exitX=0.583;exitY=0;exitDx=0;exitDy=0;exitPerimeter=0;" parent="1" edge="1">
          <mxGeometry width="50" height="50" relative="1" as="geometry">
            <mxPoint x="-330.49999999999994" y="260" as="sourcePoint" />
            <mxPoint x="-330.46" y="202" as="targetPoint" />
          </mxGeometry>
        </mxCell>
        <mxCell id="_s0GfuelR8Pv6rUaRuN1-13" value="1..*" style="text;html=1;strokeColor=none;fillColor=none;align=center;verticalAlign=middle;whiteSpace=wrap;rounded=0;" parent="1" vertex="1">
          <mxGeometry x="-330" y="230" width="60" height="30" as="geometry" />
        </mxCell>
        <mxCell id="_s0GfuelR8Pv6rUaRuN1-14" value="0..1" style="text;html=1;strokeColor=none;fillColor=none;align=center;verticalAlign=middle;whiteSpace=wrap;rounded=0;" parent="1" vertex="1">
          <mxGeometry x="-610" y="50" width="60" height="30" as="geometry" />
        </mxCell>
        <mxCell id="_s0GfuelR8Pv6rUaRuN1-15" value="1..1" style="text;html=1;strokeColor=none;fillColor=none;align=center;verticalAlign=middle;whiteSpace=wrap;rounded=0;" parent="1" vertex="1">
          <mxGeometry x="-610" y="90" width="60" height="30" as="geometry" />
        </mxCell>
        <mxCell id="_s0GfuelR8Pv6rUaRuN1-16" value="0..*" style="text;html=1;strokeColor=none;fillColor=none;align=center;verticalAlign=middle;whiteSpace=wrap;rounded=0;" parent="1" vertex="1">
          <mxGeometry x="-330" y="200" width="60" height="30" as="geometry" />
        </mxCell>
        <mxCell id="_s0GfuelR8Pv6rUaRuN1-18" value="0..*" style="text;html=1;strokeColor=none;fillColor=none;align=center;verticalAlign=middle;whiteSpace=wrap;rounded=0;" parent="1" vertex="1">
          <mxGeometry x="-330" y="20" width="60" height="30" as="geometry" />
        </mxCell>
        <mxCell id="_s0GfuelR8Pv6rUaRuN1-19" value="1..*" style="text;html=1;strokeColor=none;fillColor=none;align=center;verticalAlign=middle;whiteSpace=wrap;rounded=0;" parent="1" vertex="1">
          <mxGeometry x="-610" y="150" width="60" height="30" as="geometry" />
        </mxCell>
        <mxCell id="TBOq4dFRaI8e6CGrWUJy-35" style="edgeStyle=orthogonalEdgeStyle;rounded=0;orthogonalLoop=1;jettySize=auto;html=1;exitX=1;exitY=0.5;exitDx=0;exitDy=0;" parent="1" source="_s0GfuelR8Pv6rUaRuN1-22" target="TBOq4dFRaI8e6CGrWUJy-21" edge="1">
          <mxGeometry relative="1" as="geometry" />
        </mxCell>
        <mxCell id="TBOq4dFRaI8e6CGrWUJy-45" style="edgeStyle=orthogonalEdgeStyle;rounded=0;orthogonalLoop=1;jettySize=auto;html=1;" parent="1" source="_s0GfuelR8Pv6rUaRuN1-22" edge="1">
          <mxGeometry relative="1" as="geometry">
            <mxPoint x="271.25" y="-140" as="targetPoint" />
          </mxGeometry>
        </mxCell>
        <mxCell id="DBPzcr6BYaRuXdJbOCYY-12" style="edgeStyle=orthogonalEdgeStyle;rounded=0;orthogonalLoop=1;jettySize=auto;html=1;" parent="1" source="_s0GfuelR8Pv6rUaRuN1-22" target="_s0GfuelR8Pv6rUaRuN1-48" edge="1">
          <mxGeometry relative="1" as="geometry" />
        </mxCell>
        <mxCell id="_s0GfuelR8Pv6rUaRuN1-22" value="-string Name&lt;br&gt;-Guid Id&lt;br&gt;-Integer MinGuests&lt;br&gt;-Integer MaxGuests&lt;br&gt;-Boolean isBlocked&lt;br&gt;-String Description&lt;br&gt;-List&amp;lt;String&amp;gt; Facilities&lt;br&gt;-Double PricePerGuest" style="rounded=0;whiteSpace=wrap;html=1;fillColor=#dae8fc;strokeColor=#6c8ebf;align=left;" parent="1" vertex="1">
          <mxGeometry x="391.25" y="-210" width="250" height="170" as="geometry" />
        </mxCell>
        <mxCell id="_s0GfuelR8Pv6rUaRuN1-23" value="" style="rounded=0;whiteSpace=wrap;html=1;fillColor=#dae8fc;strokeColor=#6c8ebf;" parent="1" vertex="1">
          <mxGeometry x="183.75" y="1110" width="260" height="150" as="geometry" />
        </mxCell>
        <mxCell id="_s0GfuelR8Pv6rUaRuN1-38" value="" style="rounded=0;whiteSpace=wrap;html=1;fillColor=#dae8fc;strokeColor=#6c8ebf;" parent="1" vertex="1">
          <mxGeometry x="325" y="67.5" width="220" height="130" as="geometry" />
        </mxCell>
        <mxCell id="_s0GfuelR8Pv6rUaRuN1-40" value="" style="rounded=0;whiteSpace=wrap;html=1;fillColor=#dae8fc;strokeColor=#6c8ebf;" parent="1" vertex="1">
          <mxGeometry x="456.25" y="-550" width="185" height="160" as="geometry" />
        </mxCell>
        <mxCell id="_s0GfuelR8Pv6rUaRuN1-48" value="" style="rounded=0;whiteSpace=wrap;html=1;fillColor=#dae8fc;strokeColor=#6c8ebf;" parent="1" vertex="1">
          <mxGeometry x="596.25" y="40" width="143.75" height="130" as="geometry" />
        </mxCell>
        <mxCell id="_s0GfuelR8Pv6rUaRuN1-58" value="" style="rounded=0;whiteSpace=wrap;html=1;fillColor=#dae8fc;strokeColor=#6c8ebf;" parent="1" vertex="1">
          <mxGeometry x="553.75" y="1360" width="170" height="140" as="geometry" />
        </mxCell>
        <mxCell id="_s0GfuelR8Pv6rUaRuN1-59" value="PaymentStatus&lt;br&gt;Accepted&lt;br&gt;Rejected&lt;br&gt;WaitingApproval" style="rounded=0;whiteSpace=wrap;html=1;fillColor=#fff2cc;strokeColor=#d6b656;" parent="1" vertex="1">
          <mxGeometry x="770" y="1370" width="180" height="60" as="geometry" />
        </mxCell>
        <mxCell id="_s0GfuelR8Pv6rUaRuN1-60" value="" style="rounded=0;whiteSpace=wrap;html=1;fillColor=#dae8fc;strokeColor=#6c8ebf;" parent="1" vertex="1">
          <mxGeometry x="963.75" y="1090" width="190" height="160" as="geometry" />
        </mxCell>
        <mxCell id="_s0GfuelR8Pv6rUaRuN1-64" value="" style="rounded=0;whiteSpace=wrap;html=1;fillColor=#dae8fc;strokeColor=#6c8ebf;" parent="1" vertex="1">
          <mxGeometry x="1015" y="497.5" width="170" height="130" as="geometry" />
        </mxCell>
        <mxCell id="_s0GfuelR8Pv6rUaRuN1-65" value="" style="rounded=0;whiteSpace=wrap;html=1;fillColor=#dae8fc;strokeColor=#6c8ebf;" parent="1" vertex="1">
          <mxGeometry x="1010" y="282.5" width="260" height="90" as="geometry" />
        </mxCell>
        <mxCell id="_s0GfuelR8Pv6rUaRuN1-72" value="-Guid UserId&lt;br&gt;-string FrstName&lt;br&gt;-string LastName&lt;br&gt;-string Email&lt;br&gt;-string Password&lt;br&gt;-bool IsActive" style="text;html=1;strokeColor=none;fillColor=none;align=left;verticalAlign=middle;whiteSpace=wrap;rounded=0;" parent="1" vertex="1">
          <mxGeometry x="-385" y="330" width="100" height="60" as="geometry" />
        </mxCell>
        <mxCell id="_s0GfuelR8Pv6rUaRuN1-73" value="User" style="text;html=1;strokeColor=none;fillColor=none;align=center;verticalAlign=middle;whiteSpace=wrap;rounded=0;" parent="1" vertex="1">
          <mxGeometry x="-360" y="265" width="60" height="30" as="geometry" />
        </mxCell>
        <mxCell id="_s0GfuelR8Pv6rUaRuN1-74" value="RegistrationRequest" style="text;html=1;strokeColor=none;fillColor=none;align=center;verticalAlign=middle;whiteSpace=wrap;rounded=0;" parent="1" vertex="1">
          <mxGeometry x="-360" y="520" width="60" height="30" as="geometry" />
        </mxCell>
        <mxCell id="_s0GfuelR8Pv6rUaRuN1-77" value="UserRole" style="text;html=1;strokeColor=none;fillColor=none;align=center;verticalAlign=middle;whiteSpace=wrap;rounded=0;" parent="1" vertex="1">
          <mxGeometry x="-360" y="95" width="60" height="30" as="geometry" />
        </mxCell>
        <mxCell id="_s0GfuelR8Pv6rUaRuN1-78" value="-int Id&lt;br&gt;-string Name" style="text;html=1;strokeColor=none;fillColor=none;align=left;verticalAlign=middle;whiteSpace=wrap;rounded=0;" parent="1" vertex="1">
          <mxGeometry x="-390" y="120" width="110" height="30" as="geometry" />
        </mxCell>
        <mxCell id="_s0GfuelR8Pv6rUaRuN1-80" value="&lt;b style=&quot;font-size: 15px;&quot;&gt;UserAccess&lt;br&gt;Module&lt;/b&gt;" style="text;html=1;strokeColor=none;fillColor=none;align=center;verticalAlign=middle;whiteSpace=wrap;rounded=0;" parent="1" vertex="1">
          <mxGeometry x="-490" y="330" width="60" height="30" as="geometry" />
        </mxCell>
        <mxCell id="_s0GfuelR8Pv6rUaRuN1-81" value="SubscriptionPlan" style="text;html=1;strokeColor=none;fillColor=none;align=center;verticalAlign=middle;whiteSpace=wrap;rounded=0;" parent="1" vertex="1">
          <mxGeometry x="281.25" y="1120" width="72.5" height="30" as="geometry" />
        </mxCell>
        <mxCell id="_s0GfuelR8Pv6rUaRuN1-82" value="- Guid Id&lt;br&gt;- String Description&lt;br&gt;- Int AccomodationLimit&lt;br&gt;- Double Price" style="text;html=1;strokeColor=none;fillColor=none;align=left;verticalAlign=middle;whiteSpace=wrap;rounded=0;" parent="1" vertex="1">
          <mxGeometry x="188.75" y="1150" width="225" height="80" as="geometry" />
        </mxCell>
        <mxCell id="_s0GfuelR8Pv6rUaRuN1-85" value="SubscriptionStatus&lt;br&gt;Active&lt;br&gt;Expired&lt;br&gt;Renewed" style="rounded=0;whiteSpace=wrap;html=1;fillColor=#fff2cc;strokeColor=#d6b656;" parent="1" vertex="1">
          <mxGeometry x="323.75" y="1535" width="120" height="60" as="geometry" />
        </mxCell>
        <mxCell id="_s0GfuelR8Pv6rUaRuN1-87" value="SubscriptionPayment" style="text;html=1;strokeColor=none;fillColor=none;align=center;verticalAlign=middle;whiteSpace=wrap;rounded=0;" parent="1" vertex="1">
          <mxGeometry x="596.25" y="1360" width="120" height="30" as="geometry" />
        </mxCell>
        <mxCell id="_s0GfuelR8Pv6rUaRuN1-88" value="-Guid Id&lt;br&gt;&lt;div style=&quot;&quot;&gt;&lt;span style=&quot;background-color: initial;&quot;&gt;-Double Price&lt;/span&gt;&lt;/div&gt;&lt;div style=&quot;&quot;&gt;&lt;span style=&quot;background-color: initial;&quot;&gt;-String Currency&lt;/span&gt;&lt;/div&gt;&lt;div style=&quot;&quot;&gt;&lt;span style=&quot;background-color: initial;&quot;&gt;-DateTime ExecutionTime&lt;/span&gt;&lt;/div&gt;&lt;div style=&quot;&quot;&gt;&lt;span style=&quot;background-color: initial;&quot;&gt;-PaymentStatus&lt;/span&gt;&lt;/div&gt;" style="text;html=1;strokeColor=none;fillColor=none;align=left;verticalAlign=middle;whiteSpace=wrap;rounded=0;" parent="1" vertex="1">
          <mxGeometry x="556.25" y="1415" width="190" height="70" as="geometry" />
        </mxCell>
        <mxCell id="l-h6c9OV41oUHTthmCPv-2" value="&lt;span style=&quot;font-size: 17px;&quot;&gt;&lt;b&gt;Commerce Module&lt;/b&gt;&lt;/span&gt;" style="text;html=1;align=center;verticalAlign=middle;resizable=0;points=[];autosize=1;strokeColor=none;fillColor=none;" parent="1" vertex="1">
          <mxGeometry x="875" y="1505" width="180" height="30" as="geometry" />
        </mxCell>
        <mxCell id="aOCJP5MKHENY9Ao4_h2--3" value="ReservationPayment" style="text;html=1;strokeColor=none;fillColor=none;align=center;verticalAlign=middle;whiteSpace=wrap;rounded=0;" parent="1" vertex="1">
          <mxGeometry x="998.75" y="1100" width="125" height="30" as="geometry" />
        </mxCell>
        <mxCell id="aOCJP5MKHENY9Ao4_h2--4" value="- Guid Id&lt;br&gt;- Guid ReservationId&lt;br&gt;- Double Price&lt;br&gt;- String Currency&lt;br&gt;- Double BookingFee&lt;br&gt;- PaymentStatus Status&lt;br&gt;- DateTime ExecutionTime" style="text;html=1;strokeColor=none;fillColor=none;align=left;verticalAlign=middle;whiteSpace=wrap;rounded=0;" parent="1" vertex="1">
          <mxGeometry x="973.75" y="1130" width="170" height="100" as="geometry" />
        </mxCell>
        <mxCell id="aOCJP5MKHENY9Ao4_h2--7" value="Review" style="text;html=1;strokeColor=none;fillColor=none;align=center;verticalAlign=middle;whiteSpace=wrap;rounded=0;" parent="1" vertex="1">
          <mxGeometry x="638.13" y="40" width="60" height="30" as="geometry" />
        </mxCell>
        <mxCell id="aOCJP5MKHENY9Ao4_h2--9" value="-Guid Id&lt;br&gt;-Integer Raiting&lt;br&gt;-String Comment&lt;br&gt;" style="text;html=1;strokeColor=none;fillColor=none;align=left;verticalAlign=middle;whiteSpace=wrap;rounded=0;" parent="1" vertex="1">
          <mxGeometry x="603.75" y="95" width="150" height="30" as="geometry" />
        </mxCell>
        <mxCell id="TBOq4dFRaI8e6CGrWUJy-1" value="FavouriteAccomodation" style="text;html=1;strokeColor=none;fillColor=none;align=center;verticalAlign=middle;whiteSpace=wrap;rounded=0;" parent="1" vertex="1">
          <mxGeometry x="1090" y="287.5" width="150" height="30" as="geometry" />
        </mxCell>
        <mxCell id="TBOq4dFRaI8e6CGrWUJy-2" value="-Guid Id&lt;br&gt;-String Name&lt;br&gt;-Double PricePerGuest&lt;br&gt;-Guid AccomodationId" style="text;html=1;strokeColor=none;fillColor=none;align=left;verticalAlign=middle;whiteSpace=wrap;rounded=0;" parent="1" vertex="1">
          <mxGeometry x="1010" y="317.5" width="220" height="30" as="geometry" />
        </mxCell>
        <mxCell id="TBOq4dFRaI8e6CGrWUJy-4" value="PriceChangeTrack" style="text;html=1;strokeColor=none;fillColor=none;align=center;verticalAlign=middle;whiteSpace=wrap;rounded=0;" parent="1" vertex="1">
          <mxGeometry x="1060" y="497.5" width="90" height="30" as="geometry" />
        </mxCell>
        <mxCell id="TBOq4dFRaI8e6CGrWUJy-5" value="-Guid Id;&lt;br&gt;-Double PrevoiusPrice;&lt;br&gt;-Double NewPrice&lt;br&gt;-DateTime Timestamp;" style="text;html=1;strokeColor=none;fillColor=none;align=left;verticalAlign=middle;whiteSpace=wrap;rounded=0;" parent="1" vertex="1">
          <mxGeometry x="1015" y="537.5" width="165" height="60" as="geometry" />
        </mxCell>
        <mxCell id="TBOq4dFRaI8e6CGrWUJy-7" value="" style="endArrow=classic;html=1;rounded=0;exitX=0.5;exitY=1;exitDx=0;exitDy=0;entryX=0.611;entryY=0;entryDx=0;entryDy=0;entryPerimeter=0;" parent="1" source="_s0GfuelR8Pv6rUaRuN1-65" target="TBOq4dFRaI8e6CGrWUJy-4" edge="1">
          <mxGeometry width="50" height="50" relative="1" as="geometry">
            <mxPoint x="940" y="472.5" as="sourcePoint" />
            <mxPoint x="990" y="422.5" as="targetPoint" />
          </mxGeometry>
        </mxCell>
        <mxCell id="TBOq4dFRaI8e6CGrWUJy-8" value="0..*" style="text;html=1;strokeColor=none;fillColor=none;align=center;verticalAlign=middle;whiteSpace=wrap;rounded=0;" parent="1" vertex="1">
          <mxGeometry x="1045" y="467.5" width="60" height="30" as="geometry" />
        </mxCell>
        <mxCell id="TBOq4dFRaI8e6CGrWUJy-9" value="1..1" style="text;html=1;strokeColor=none;fillColor=none;align=center;verticalAlign=middle;whiteSpace=wrap;rounded=0;" parent="1" vertex="1">
          <mxGeometry x="1075" y="372.5" width="60" height="30" as="geometry" />
        </mxCell>
        <mxCell id="TBOq4dFRaI8e6CGrWUJy-10" value="" style="rounded=0;whiteSpace=wrap;html=1;fillColor=#dae8fc;strokeColor=#6c8ebf;" parent="1" vertex="1">
          <mxGeometry x="1220" y="497.5" width="170" height="130" as="geometry" />
        </mxCell>
        <mxCell id="TBOq4dFRaI8e6CGrWUJy-11" value="AvailibilityChangeTrack" style="text;html=1;strokeColor=none;fillColor=none;align=center;verticalAlign=middle;whiteSpace=wrap;rounded=0;" parent="1" vertex="1">
          <mxGeometry x="1265" y="497.5" width="90" height="30" as="geometry" />
        </mxCell>
        <mxCell id="TBOq4dFRaI8e6CGrWUJy-12" value="-Guid Id;&lt;br&gt;-DateTimeSlot oldSlot;&lt;br&gt;-DateTimeSlot newSlot;&lt;br&gt;-DateTime Timestamp;" style="text;html=1;strokeColor=none;fillColor=none;align=left;verticalAlign=middle;whiteSpace=wrap;rounded=0;" parent="1" vertex="1">
          <mxGeometry x="1220" y="537.5" width="165" height="60" as="geometry" />
        </mxCell>
        <mxCell id="TBOq4dFRaI8e6CGrWUJy-13" value="0..*" style="text;html=1;strokeColor=none;fillColor=none;align=center;verticalAlign=middle;whiteSpace=wrap;rounded=0;" parent="1" vertex="1">
          <mxGeometry x="1260" y="467.5" width="60" height="30" as="geometry" />
        </mxCell>
        <mxCell id="TBOq4dFRaI8e6CGrWUJy-14" value="" style="endArrow=classic;html=1;rounded=0;exitX=0.5;exitY=1;exitDx=0;exitDy=0;entryX=0.176;entryY=-0.031;entryDx=0;entryDy=0;entryPerimeter=0;" parent="1" target="TBOq4dFRaI8e6CGrWUJy-10" edge="1">
          <mxGeometry width="50" height="50" relative="1" as="geometry">
            <mxPoint x="1160" y="372.5" as="sourcePoint" />
            <mxPoint x="1010" y="482.5" as="targetPoint" />
          </mxGeometry>
        </mxCell>
        <mxCell id="TBOq4dFRaI8e6CGrWUJy-15" value="1..1" style="text;html=1;strokeColor=none;fillColor=none;align=center;verticalAlign=middle;whiteSpace=wrap;rounded=0;" parent="1" vertex="1">
          <mxGeometry x="1182.5" y="377.5" width="60" height="30" as="geometry" />
        </mxCell>
        <mxCell id="TBOq4dFRaI8e6CGrWUJy-19" value="" style="rounded=0;whiteSpace=wrap;html=1;fillColor=#dae8fc;strokeColor=#6c8ebf;" parent="1" vertex="1">
          <mxGeometry x="771.25" y="-150" width="205" height="160" as="geometry" />
        </mxCell>
        <mxCell id="TBOq4dFRaI8e6CGrWUJy-20" value="ReservationRequest" style="text;html=1;strokeColor=none;fillColor=none;align=center;verticalAlign=middle;whiteSpace=wrap;rounded=0;" parent="1" vertex="1">
          <mxGeometry x="841.25" y="-150" width="60" height="30" as="geometry" />
        </mxCell>
        <mxCell id="TBOq4dFRaI8e6CGrWUJy-21" value="-Guid Id&lt;br&gt;&lt;div style=&quot;&quot;&gt;&lt;span style=&quot;background-color: initial;&quot;&gt;-DateTime Start&lt;/span&gt;&lt;/div&gt;-DateTime End&lt;br&gt;-ReservationRequestStatus Status&lt;br&gt;-Integer GuestNumber&lt;br&gt;-String Message" style="text;html=1;strokeColor=none;fillColor=none;align=left;verticalAlign=middle;whiteSpace=wrap;rounded=0;" parent="1" vertex="1">
          <mxGeometry x="771.25" y="-85" width="195" height="60" as="geometry" />
        </mxCell>
        <mxCell id="TBOq4dFRaI8e6CGrWUJy-24" value="Accomodation" style="text;html=1;strokeColor=none;fillColor=none;align=center;verticalAlign=middle;whiteSpace=wrap;rounded=0;" parent="1" vertex="1">
          <mxGeometry x="440" y="-210" width="160" height="30" as="geometry" />
        </mxCell>
        <mxCell id="TBOq4dFRaI8e6CGrWUJy-28" value="" style="rounded=0;whiteSpace=wrap;html=1;fillColor=#dae8fc;strokeColor=#6c8ebf;align=left;" parent="1" vertex="1">
          <mxGeometry x="851.25" y="-350" width="235" height="150" as="geometry" />
        </mxCell>
        <mxCell id="TBOq4dFRaI8e6CGrWUJy-29" value="Photo" style="text;html=1;strokeColor=none;fillColor=none;align=center;verticalAlign=middle;whiteSpace=wrap;rounded=0;" parent="1" vertex="1">
          <mxGeometry x="938.75" y="-340" width="60" height="30" as="geometry" />
        </mxCell>
        <mxCell id="TBOq4dFRaI8e6CGrWUJy-30" value="-Guid Id&lt;br&gt;-Byte Image" style="text;html=1;strokeColor=none;fillColor=none;align=left;verticalAlign=middle;whiteSpace=wrap;rounded=0;" parent="1" vertex="1">
          <mxGeometry x="856.25" y="-310" width="180" height="60" as="geometry" />
        </mxCell>
        <mxCell id="TBOq4dFRaI8e6CGrWUJy-31" value="" style="endArrow=classic;html=1;rounded=0;entryX=-0.013;entryY=0.16;entryDx=0;entryDy=0;entryPerimeter=0;" parent="1" target="TBOq4dFRaI8e6CGrWUJy-28" edge="1">
          <mxGeometry width="50" height="50" relative="1" as="geometry">
            <mxPoint x="536.25" y="-210" as="sourcePoint" />
            <mxPoint x="586.25" y="-260" as="targetPoint" />
          </mxGeometry>
        </mxCell>
        <mxCell id="TBOq4dFRaI8e6CGrWUJy-32" value="1...1" style="text;html=1;strokeColor=none;fillColor=none;align=center;verticalAlign=middle;whiteSpace=wrap;rounded=0;" parent="1" vertex="1">
          <mxGeometry x="641.25" y="-245" width="60" height="30" as="geometry" />
        </mxCell>
        <mxCell id="TBOq4dFRaI8e6CGrWUJy-33" value="0..*" style="text;html=1;strokeColor=none;fillColor=none;align=center;verticalAlign=middle;whiteSpace=wrap;rounded=0;" parent="1" vertex="1">
          <mxGeometry x="793.75" y="-300" width="60" height="30" as="geometry" />
        </mxCell>
        <mxCell id="TBOq4dFRaI8e6CGrWUJy-36" value="0..*" style="text;html=1;strokeColor=none;fillColor=none;align=center;verticalAlign=middle;whiteSpace=wrap;rounded=0;" parent="1" vertex="1">
          <mxGeometry x="711.25" y="-90" width="60" height="30" as="geometry" />
        </mxCell>
        <mxCell id="TBOq4dFRaI8e6CGrWUJy-37" value="1..1" style="text;html=1;strokeColor=none;fillColor=none;align=center;verticalAlign=middle;whiteSpace=wrap;rounded=0;" parent="1" vertex="1">
          <mxGeometry x="641.25" y="-160" width="60" height="30" as="geometry" />
        </mxCell>
        <mxCell id="TBOq4dFRaI8e6CGrWUJy-38" value="ReservationRequestStatus&lt;br&gt;Waiting&lt;br&gt;Accepted&lt;br&gt;Rejected&lt;br&gt;Canceled" style="rounded=0;whiteSpace=wrap;html=1;fillColor=#fff2cc;strokeColor=#d6b656;" parent="1" vertex="1">
          <mxGeometry x="18.75" y="-360" width="140" height="80" as="geometry" />
        </mxCell>
        <mxCell id="TBOq4dFRaI8e6CGrWUJy-39" value="" style="rounded=0;whiteSpace=wrap;html=1;fillColor=#dae8fc;strokeColor=#6c8ebf;" parent="1" vertex="1">
          <mxGeometry x="18.75" y="-245" width="250" height="160" as="geometry" />
        </mxCell>
        <mxCell id="TBOq4dFRaI8e6CGrWUJy-40" value="Reservation" style="text;html=1;strokeColor=none;fillColor=none;align=center;verticalAlign=middle;whiteSpace=wrap;rounded=0;" parent="1" vertex="1">
          <mxGeometry x="78.75" y="-245" width="157.5" height="30" as="geometry" />
        </mxCell>
        <mxCell id="TBOq4dFRaI8e6CGrWUJy-41" value="-Guid Id;&lt;br&gt;-DateTime Start&lt;br&gt;-DateTime End&lt;br&gt;-ReservationStatus Status&lt;br&gt;-Integer GuestNumber&lt;br&gt;-Double Price" style="text;html=1;strokeColor=none;fillColor=none;align=left;verticalAlign=middle;whiteSpace=wrap;rounded=0;" parent="1" vertex="1">
          <mxGeometry x="21.25" y="-165" width="240" height="30" as="geometry" />
        </mxCell>
        <mxCell id="TBOq4dFRaI8e6CGrWUJy-42" value="AvailabilityPeriod" style="text;html=1;strokeColor=none;fillColor=none;align=center;verticalAlign=middle;whiteSpace=wrap;rounded=0;" parent="1" vertex="1">
          <mxGeometry x="412.5" y="75.5" width="60" height="30" as="geometry" />
        </mxCell>
        <mxCell id="TBOq4dFRaI8e6CGrWUJy-43" value="-Guid Id&lt;br&gt;-DateTime StartDate&lt;br&gt;-DateTime EndDate&lt;br&gt;-Double Price" style="text;html=1;strokeColor=none;fillColor=none;align=left;verticalAlign=middle;whiteSpace=wrap;rounded=0;" parent="1" vertex="1">
          <mxGeometry x="336.25" y="127.5" width="220" height="60" as="geometry" />
        </mxCell>
        <mxCell id="TBOq4dFRaI8e6CGrWUJy-46" value="0..*" style="text;html=1;strokeColor=none;fillColor=none;align=center;verticalAlign=middle;whiteSpace=wrap;rounded=0;" parent="1" vertex="1">
          <mxGeometry x="268.75" y="-180" width="60" height="30" as="geometry" />
        </mxCell>
        <mxCell id="TBOq4dFRaI8e6CGrWUJy-47" value="1..1" style="text;html=1;strokeColor=none;fillColor=none;align=center;verticalAlign=middle;whiteSpace=wrap;rounded=0;" parent="1" vertex="1">
          <mxGeometry x="336.25" y="-160" width="60" height="30" as="geometry" />
        </mxCell>
        <mxCell id="TBOq4dFRaI8e6CGrWUJy-53" style="edgeStyle=orthogonalEdgeStyle;rounded=0;orthogonalLoop=1;jettySize=auto;html=1;exitX=0.25;exitY=1;exitDx=0;exitDy=0;entryX=0.57;entryY=-0.023;entryDx=0;entryDy=0;entryPerimeter=0;" parent="1" source="_s0GfuelR8Pv6rUaRuN1-22" target="_s0GfuelR8Pv6rUaRuN1-38" edge="1">
          <mxGeometry relative="1" as="geometry" />
        </mxCell>
        <mxCell id="TBOq4dFRaI8e6CGrWUJy-54" value="0..*" style="text;html=1;strokeColor=none;fillColor=none;align=center;verticalAlign=middle;whiteSpace=wrap;rounded=0;" parent="1" vertex="1">
          <mxGeometry x="465" y="30" width="60" height="30" as="geometry" />
        </mxCell>
        <mxCell id="TBOq4dFRaI8e6CGrWUJy-55" value="1..1" style="text;html=1;strokeColor=none;fillColor=none;align=center;verticalAlign=middle;whiteSpace=wrap;rounded=0;" parent="1" vertex="1">
          <mxGeometry x="398.75" y="-40" width="60" height="30" as="geometry" />
        </mxCell>
        <mxCell id="Hsva8Na3B20kNWSOzwPm-1" value="Host" style="text;html=1;strokeColor=none;fillColor=none;align=center;verticalAlign=middle;whiteSpace=wrap;rounded=0;" parent="1" vertex="1">
          <mxGeometry x="518.75" y="-530" width="60" height="30" as="geometry" />
        </mxCell>
        <mxCell id="Hsva8Na3B20kNWSOzwPm-2" value="-Guid Id&lt;br style=&quot;border-color: var(--border-color);&quot;&gt;&lt;span style=&quot;&quot;&gt;-Guid UserId&lt;/span&gt;" style="text;html=1;strokeColor=none;fillColor=none;align=left;verticalAlign=middle;whiteSpace=wrap;rounded=0;" parent="1" vertex="1">
          <mxGeometry x="471.25" y="-470" width="145" height="30" as="geometry" />
        </mxCell>
        <mxCell id="Hsva8Na3B20kNWSOzwPm-22" style="edgeStyle=orthogonalEdgeStyle;rounded=0;orthogonalLoop=1;jettySize=auto;html=1;" parent="1" source="Hsva8Na3B20kNWSOzwPm-14" edge="1">
          <mxGeometry relative="1" as="geometry">
            <mxPoint x="233.75" y="1420" as="targetPoint" />
          </mxGeometry>
        </mxCell>
        <mxCell id="Hsva8Na3B20kNWSOzwPm-14" value="&lt;div style=&quot;&quot;&gt;&lt;span style=&quot;background-color: initial;&quot;&gt;-Guid Id&lt;/span&gt;&lt;/div&gt;-Guid HostId&lt;br&gt;" style="rounded=0;whiteSpace=wrap;html=1;fillColor=#dae8fc;strokeColor=#6c8ebf;align=left;" parent="1" vertex="1">
          <mxGeometry x="-56.25" y="1365" width="140" height="155" as="geometry" />
        </mxCell>
        <mxCell id="Hsva8Na3B20kNWSOzwPm-15" value="Subscriber" style="text;html=1;strokeColor=none;fillColor=none;align=center;verticalAlign=middle;whiteSpace=wrap;rounded=0;" parent="1" vertex="1">
          <mxGeometry x="-27.5" y="1370" width="82.5" height="30" as="geometry" />
        </mxCell>
        <mxCell id="Hsva8Na3B20kNWSOzwPm-23" style="edgeStyle=orthogonalEdgeStyle;rounded=0;orthogonalLoop=1;jettySize=auto;html=1;entryX=0.5;entryY=1;entryDx=0;entryDy=0;" parent="1" source="Hsva8Na3B20kNWSOzwPm-17" target="_s0GfuelR8Pv6rUaRuN1-23" edge="1">
          <mxGeometry relative="1" as="geometry">
            <Array as="points">
              <mxPoint x="317.75" y="1260" />
            </Array>
          </mxGeometry>
        </mxCell>
        <mxCell id="Hsva8Na3B20kNWSOzwPm-29" style="edgeStyle=orthogonalEdgeStyle;rounded=0;orthogonalLoop=1;jettySize=auto;html=1;" parent="1" source="Hsva8Na3B20kNWSOzwPm-17" edge="1">
          <mxGeometry relative="1" as="geometry">
            <mxPoint x="553.75" y="1430" as="targetPoint" />
          </mxGeometry>
        </mxCell>
        <mxCell id="Hsva8Na3B20kNWSOzwPm-17" value="" style="rounded=0;whiteSpace=wrap;html=1;fillColor=#dae8fc;strokeColor=#6c8ebf;" parent="1" vertex="1">
          <mxGeometry x="236.25" y="1360" width="162.5" height="140" as="geometry" />
        </mxCell>
        <mxCell id="Hsva8Na3B20kNWSOzwPm-18" value="Subscription" style="text;html=1;strokeColor=none;fillColor=none;align=center;verticalAlign=middle;whiteSpace=wrap;rounded=0;" parent="1" vertex="1">
          <mxGeometry x="291.25" y="1360" width="60" height="30" as="geometry" />
        </mxCell>
        <mxCell id="Hsva8Na3B20kNWSOzwPm-24" value="1..1" style="text;html=1;strokeColor=none;fillColor=none;align=center;verticalAlign=middle;whiteSpace=wrap;rounded=0;" parent="1" vertex="1">
          <mxGeometry x="88.75" y="1410" width="60" height="30" as="geometry" />
        </mxCell>
        <mxCell id="Hsva8Na3B20kNWSOzwPm-25" value="0..*" style="text;html=1;strokeColor=none;fillColor=none;align=center;verticalAlign=middle;whiteSpace=wrap;rounded=0;" parent="1" vertex="1">
          <mxGeometry x="176.25" y="1385" width="60" height="30" as="geometry" />
        </mxCell>
        <mxCell id="Hsva8Na3B20kNWSOzwPm-26" value="0..*" style="text;html=1;strokeColor=none;fillColor=none;align=center;verticalAlign=middle;whiteSpace=wrap;rounded=0;" parent="1" vertex="1">
          <mxGeometry x="321.25" y="1330" width="60" height="30" as="geometry" />
        </mxCell>
        <mxCell id="Hsva8Na3B20kNWSOzwPm-27" value="1..1" style="text;html=1;strokeColor=none;fillColor=none;align=center;verticalAlign=middle;whiteSpace=wrap;rounded=0;" parent="1" vertex="1">
          <mxGeometry x="328.75" y="1260" width="60" height="30" as="geometry" />
        </mxCell>
        <mxCell id="Hsva8Na3B20kNWSOzwPm-28" value="&lt;div style=&quot;&quot;&gt;&lt;span style=&quot;background-color: initial;&quot;&gt;- Guid Id&lt;/span&gt;&lt;/div&gt;&lt;div style=&quot;&quot;&gt;&lt;span style=&quot;background-color: initial;&quot;&gt;- DateTime StartDate&lt;/span&gt;&lt;/div&gt;&lt;div style=&quot;&quot;&gt;&lt;span style=&quot;background-color: initial;&quot;&gt;- DateTime EndDate&lt;/span&gt;&lt;/div&gt;&lt;div style=&quot;&quot;&gt;&lt;span style=&quot;background-color: initial;&quot;&gt;- SubscriptionStatus Status&lt;/span&gt;&lt;/div&gt;" style="text;html=1;strokeColor=none;fillColor=none;align=left;verticalAlign=middle;whiteSpace=wrap;rounded=0;" parent="1" vertex="1">
          <mxGeometry x="241.25" y="1420" width="162.5" height="30" as="geometry" />
        </mxCell>
        <mxCell id="Hsva8Na3B20kNWSOzwPm-30" value="0..1" style="text;html=1;strokeColor=none;fillColor=none;align=center;verticalAlign=middle;whiteSpace=wrap;rounded=0;" parent="1" vertex="1">
          <mxGeometry x="398.75" y="1400" width="60" height="30" as="geometry" />
        </mxCell>
        <mxCell id="Hsva8Na3B20kNWSOzwPm-31" value="0..*" style="text;html=1;strokeColor=none;fillColor=none;align=center;verticalAlign=middle;whiteSpace=wrap;rounded=0;" parent="1" vertex="1">
          <mxGeometry x="506.25" y="1400" width="60" height="30" as="geometry" />
        </mxCell>
        <mxCell id="Hsva8Na3B20kNWSOzwPm-34" style="edgeStyle=orthogonalEdgeStyle;rounded=0;orthogonalLoop=1;jettySize=auto;html=1;entryX=0;entryY=0.5;entryDx=0;entryDy=0;" parent="1" source="Hsva8Na3B20kNWSOzwPm-32" target="_s0GfuelR8Pv6rUaRuN1-60" edge="1">
          <mxGeometry relative="1" as="geometry" />
        </mxCell>
        <mxCell id="Hsva8Na3B20kNWSOzwPm-32" value="&lt;div style=&quot;&quot;&gt;&lt;span style=&quot;background-color: initial;&quot;&gt;-Guid Id&lt;/span&gt;&lt;/div&gt;-Guid GuestId&lt;br&gt;" style="rounded=0;whiteSpace=wrap;html=1;fillColor=#dae8fc;strokeColor=#6c8ebf;align=left;" parent="1" vertex="1">
          <mxGeometry x="658.75" y="1110" width="140" height="120" as="geometry" />
        </mxCell>
        <mxCell id="Hsva8Na3B20kNWSOzwPm-33" value="Payer" style="text;html=1;strokeColor=none;fillColor=none;align=center;verticalAlign=middle;whiteSpace=wrap;rounded=0;" parent="1" vertex="1">
          <mxGeometry x="698.75" y="1110" width="60" height="30" as="geometry" />
        </mxCell>
        <mxCell id="Hsva8Na3B20kNWSOzwPm-35" value="1..1" style="text;html=1;strokeColor=none;fillColor=none;align=center;verticalAlign=middle;whiteSpace=wrap;rounded=0;" parent="1" vertex="1">
          <mxGeometry x="793.75" y="1140" width="60" height="30" as="geometry" />
        </mxCell>
        <mxCell id="Hsva8Na3B20kNWSOzwPm-36" value="0..*" style="text;html=1;strokeColor=none;fillColor=none;align=center;verticalAlign=middle;whiteSpace=wrap;rounded=0;" parent="1" vertex="1">
          <mxGeometry x="903.75" y="1140" width="60" height="30" as="geometry" />
        </mxCell>
        <mxCell id="Hsva8Na3B20kNWSOzwPm-39" style="edgeStyle=orthogonalEdgeStyle;rounded=0;orthogonalLoop=1;jettySize=auto;html=1;entryX=0.353;entryY=0.004;entryDx=0;entryDy=0;entryPerimeter=0;" parent="1" source="_s0GfuelR8Pv6rUaRuN1-40" target="_s0GfuelR8Pv6rUaRuN1-22" edge="1">
          <mxGeometry relative="1" as="geometry" />
        </mxCell>
        <mxCell id="Hsva8Na3B20kNWSOzwPm-40" value="1..1" style="text;html=1;strokeColor=none;fillColor=none;align=center;verticalAlign=middle;whiteSpace=wrap;rounded=0;" parent="1" vertex="1">
          <mxGeometry x="556.25" y="-370" width="60" height="30" as="geometry" />
        </mxCell>
        <mxCell id="Hsva8Na3B20kNWSOzwPm-41" value="0..*" style="text;html=1;strokeColor=none;fillColor=none;align=center;verticalAlign=middle;whiteSpace=wrap;rounded=0;" parent="1" vertex="1">
          <mxGeometry x="486.25" y="-250" width="60" height="30" as="geometry" />
        </mxCell>
        <mxCell id="Jm-KTkyLSJEUrd4OAcMt-1" value="0..*" style="text;html=1;align=center;verticalAlign=middle;resizable=0;points=[];autosize=1;strokeColor=none;fillColor=none;" parent="1" vertex="1">
          <mxGeometry x="1140" y="250" width="40" height="30" as="geometry" />
        </mxCell>
        <mxCell id="Jm-KTkyLSJEUrd4OAcMt-3" value="" style="whiteSpace=wrap;html=1;fillColor=#dae8fc;strokeColor=#6c8ebf;" parent="1" vertex="1">
          <mxGeometry x="841.25" y="-520" width="120" height="90" as="geometry" />
        </mxCell>
        <mxCell id="Jm-KTkyLSJEUrd4OAcMt-4" value="Address" style="text;html=1;strokeColor=none;fillColor=none;align=center;verticalAlign=middle;whiteSpace=wrap;rounded=0;" parent="1" vertex="1">
          <mxGeometry x="868.75" y="-520" width="62.5" height="30" as="geometry" />
        </mxCell>
        <mxCell id="Jm-KTkyLSJEUrd4OAcMt-5" value="-Guid Id&lt;br&gt;-string Country&lt;br&gt;-string City&lt;br&gt;-string Street&lt;br&gt;-string Number" style="text;html=1;align=left;verticalAlign=middle;resizable=0;points=[];autosize=1;strokeColor=none;fillColor=none;" parent="1" vertex="1">
          <mxGeometry x="841.25" y="-510" width="100" height="90" as="geometry" />
        </mxCell>
        <mxCell id="Jm-KTkyLSJEUrd4OAcMt-7" value="0..1" style="text;html=1;align=center;verticalAlign=middle;resizable=0;points=[];autosize=1;strokeColor=none;fillColor=none;" parent="1" vertex="1">
          <mxGeometry x="801.25" y="-500" width="40" height="30" as="geometry" />
        </mxCell>
        <mxCell id="Jm-KTkyLSJEUrd4OAcMt-8" value="1..1" style="text;html=1;align=center;verticalAlign=middle;resizable=0;points=[];autosize=1;strokeColor=none;fillColor=none;" parent="1" vertex="1">
          <mxGeometry x="638.13" y="-500" width="40" height="30" as="geometry" />
        </mxCell>
        <mxCell id="FAhRWrUTWEvxomt6O1hr-1" value="-int Id&lt;br&gt;-string Name" style="rounded=0;whiteSpace=wrap;html=1;fillColor=#dae8fc;strokeColor=#6c8ebf;align=left;" parent="1" vertex="1">
          <mxGeometry x="-400" y="-70" width="120" height="90" as="geometry" />
        </mxCell>
        <mxCell id="FAhRWrUTWEvxomt6O1hr-2" value="Permission" style="text;html=1;strokeColor=none;fillColor=none;align=center;verticalAlign=middle;whiteSpace=wrap;rounded=0;" parent="1" vertex="1">
          <mxGeometry x="-370" y="-70" width="60" height="30" as="geometry" />
        </mxCell>
        <mxCell id="FAhRWrUTWEvxomt6O1hr-3" style="edgeStyle=orthogonalEdgeStyle;rounded=0;orthogonalLoop=1;jettySize=auto;html=1;entryX=0.587;entryY=0.978;entryDx=0;entryDy=0;entryPerimeter=0;" parent="1" source="_s0GfuelR8Pv6rUaRuN1-77" target="FAhRWrUTWEvxomt6O1hr-1" edge="1">
          <mxGeometry relative="1" as="geometry" />
        </mxCell>
        <mxCell id="FAhRWrUTWEvxomt6O1hr-4" value="0..*" style="text;html=1;align=center;verticalAlign=middle;resizable=0;points=[];autosize=1;strokeColor=none;fillColor=none;" parent="1" vertex="1">
          <mxGeometry x="-330" y="58" width="40" height="30" as="geometry" />
        </mxCell>
        <mxCell id="DBPzcr6BYaRuXdJbOCYY-7" style="edgeStyle=orthogonalEdgeStyle;rounded=0;orthogonalLoop=1;jettySize=auto;html=1;" parent="1" source="DBPzcr6BYaRuXdJbOCYY-1" edge="1">
          <mxGeometry relative="1" as="geometry">
            <mxPoint x="1130" y="280" as="targetPoint" />
          </mxGeometry>
        </mxCell>
        <mxCell id="DBPzcr6BYaRuXdJbOCYY-16" style="edgeStyle=orthogonalEdgeStyle;rounded=0;orthogonalLoop=1;jettySize=auto;html=1;exitX=0.5;exitY=1;exitDx=0;exitDy=0;" parent="1" source="DBPzcr6BYaRuXdJbOCYY-1" edge="1">
          <mxGeometry relative="1" as="geometry">
            <mxPoint x="100" y="-77.64705882352942" as="targetPoint" />
          </mxGeometry>
        </mxCell>
        <mxCell id="llJc7mNLy1jHQX_xW45l-2" style="edgeStyle=orthogonalEdgeStyle;rounded=0;orthogonalLoop=1;jettySize=auto;html=1;exitX=1;exitY=0.25;exitDx=0;exitDy=0;entryX=1;entryY=0.5;entryDx=0;entryDy=0;" parent="1" source="DBPzcr6BYaRuXdJbOCYY-1" target="Jm-KTkyLSJEUrd4OAcMt-3" edge="1">
          <mxGeometry relative="1" as="geometry">
            <Array as="points">
              <mxPoint x="1240" y="155" />
              <mxPoint x="1240" y="-475" />
            </Array>
          </mxGeometry>
        </mxCell>
        <mxCell id="DBPzcr6BYaRuXdJbOCYY-1" value="" style="rounded=0;whiteSpace=wrap;html=1;fillColor=#dae8fc;strokeColor=#6c8ebf;" parent="1" vertex="1">
          <mxGeometry x="793.75" y="117.5" width="120" height="150" as="geometry" />
        </mxCell>
        <mxCell id="DBPzcr6BYaRuXdJbOCYY-2" value="Guest" style="text;html=1;strokeColor=none;fillColor=none;align=center;verticalAlign=middle;whiteSpace=wrap;rounded=0;" parent="1" vertex="1">
          <mxGeometry x="823.75" y="117.5" width="60" height="30" as="geometry" />
        </mxCell>
        <mxCell id="DBPzcr6BYaRuXdJbOCYY-9" style="edgeStyle=orthogonalEdgeStyle;rounded=0;orthogonalLoop=1;jettySize=auto;html=1;entryX=0.25;entryY=1;entryDx=0;entryDy=0;" parent="1" source="DBPzcr6BYaRuXdJbOCYY-3" target="_s0GfuelR8Pv6rUaRuN1-48" edge="1">
          <mxGeometry relative="1" as="geometry" />
        </mxCell>
        <mxCell id="DBPzcr6BYaRuXdJbOCYY-3" value="-Guid Id&lt;br&gt;-Guid UserId" style="text;html=1;strokeColor=none;fillColor=none;align=left;verticalAlign=middle;whiteSpace=wrap;rounded=0;" parent="1" vertex="1">
          <mxGeometry x="798.75" y="167.5" width="100" height="60" as="geometry" />
        </mxCell>
        <mxCell id="DBPzcr6BYaRuXdJbOCYY-6" style="edgeStyle=orthogonalEdgeStyle;rounded=0;orthogonalLoop=1;jettySize=auto;html=1;entryX=0.402;entryY=1;entryDx=0;entryDy=0;entryPerimeter=0;" parent="1" source="DBPzcr6BYaRuXdJbOCYY-2" target="TBOq4dFRaI8e6CGrWUJy-19" edge="1">
          <mxGeometry relative="1" as="geometry" />
        </mxCell>
        <mxCell id="DBPzcr6BYaRuXdJbOCYY-8" value="1..1" style="text;html=1;align=center;verticalAlign=middle;resizable=0;points=[];autosize=1;strokeColor=none;fillColor=none;" parent="1" vertex="1">
          <mxGeometry x="923.75" y="167.5" width="40" height="30" as="geometry" />
        </mxCell>
        <mxCell id="DBPzcr6BYaRuXdJbOCYY-10" value="0..*" style="text;html=1;align=center;verticalAlign=middle;resizable=0;points=[];autosize=1;strokeColor=none;fillColor=none;" parent="1" vertex="1">
          <mxGeometry x="630" y="168" width="40" height="30" as="geometry" />
        </mxCell>
        <mxCell id="DBPzcr6BYaRuXdJbOCYY-11" value="1.1" style="text;html=1;align=center;verticalAlign=middle;resizable=0;points=[];autosize=1;strokeColor=none;fillColor=none;" parent="1" vertex="1">
          <mxGeometry x="750" y="198" width="40" height="30" as="geometry" />
        </mxCell>
        <mxCell id="DBPzcr6BYaRuXdJbOCYY-13" value="0..*" style="text;html=1;align=center;verticalAlign=middle;resizable=0;points=[];autosize=1;strokeColor=none;fillColor=none;" parent="1" vertex="1">
          <mxGeometry x="676.25" y="10" width="40" height="30" as="geometry" />
        </mxCell>
        <mxCell id="DBPzcr6BYaRuXdJbOCYY-14" value="1..1" style="text;html=1;align=center;verticalAlign=middle;resizable=0;points=[];autosize=1;strokeColor=none;fillColor=none;" parent="1" vertex="1">
          <mxGeometry x="518.75" y="-40" width="40" height="30" as="geometry" />
        </mxCell>
        <mxCell id="DBPzcr6BYaRuXdJbOCYY-17" value="0..*" style="text;html=1;align=center;verticalAlign=middle;resizable=0;points=[];autosize=1;strokeColor=none;fillColor=none;" parent="1" vertex="1">
          <mxGeometry x="100" y="-72" width="40" height="30" as="geometry" />
        </mxCell>
        <mxCell id="DBPzcr6BYaRuXdJbOCYY-18" value="1..1" style="text;html=1;align=center;verticalAlign=middle;resizable=0;points=[];autosize=1;strokeColor=none;fillColor=none;" parent="1" vertex="1">
          <mxGeometry x="861.25" y="267.5" width="40" height="30" as="geometry" />
        </mxCell>
        <mxCell id="llJc7mNLy1jHQX_xW45l-1" style="edgeStyle=orthogonalEdgeStyle;rounded=0;orthogonalLoop=1;jettySize=auto;html=1;exitX=1;exitY=0.5;exitDx=0;exitDy=0;entryX=-0.045;entryY=0.449;entryDx=0;entryDy=0;entryPerimeter=0;" parent="1" source="_s0GfuelR8Pv6rUaRuN1-40" target="Jm-KTkyLSJEUrd4OAcMt-5" edge="1">
          <mxGeometry relative="1" as="geometry" />
        </mxCell>
        <mxCell id="llJc7mNLy1jHQX_xW45l-3" value="0..1" style="text;html=1;align=center;verticalAlign=middle;resizable=0;points=[];autosize=1;strokeColor=none;fillColor=none;" parent="1" vertex="1">
          <mxGeometry x="973.75" y="-510" width="40" height="30" as="geometry" />
        </mxCell>
        <mxCell id="llJc7mNLy1jHQX_xW45l-4" value="1..1" style="text;html=1;align=center;verticalAlign=middle;resizable=0;points=[];autosize=1;strokeColor=none;fillColor=none;" parent="1" vertex="1">
          <mxGeometry x="921.25" y="120" width="40" height="30" as="geometry" />
        </mxCell>
        <mxCell id="_UdqoNWGLz1dsp_obrf0-2" value="&lt;span style=&quot;font-size: 15px;&quot;&gt;&lt;b&gt;Accomodatiion Module&lt;/b&gt;&lt;/span&gt;" style="text;html=1;strokeColor=none;fillColor=none;align=center;verticalAlign=middle;whiteSpace=wrap;rounded=0;" parent="1" vertex="1">
          <mxGeometry x="188.75" y="605" width="60" height="30" as="geometry" />
        </mxCell>
      </root>
    </mxGraphModel>
  </diagram>
  <diagram id="1nrv5KPDgWRwQarpzbj5" name="Dependency Graph">
    <mxGraphModel dx="1434" dy="1846" grid="1" gridSize="10" guides="1" tooltips="1" connect="1" arrows="1" fold="1" page="1" pageScale="1" pageWidth="850" pageHeight="1100" math="0" shadow="0">
      <root>
        <mxCell id="0" />
        <mxCell id="1" parent="0" />
        <mxCell id="yPJ0pyhVDcXjvVdX8UPI-42" style="edgeStyle=orthogonalEdgeStyle;rounded=0;orthogonalLoop=1;jettySize=auto;html=1;exitX=1;exitY=0.5;exitDx=0;exitDy=0;entryX=0.5;entryY=0;entryDx=0;entryDy=0;" parent="1" source="ovzaOvgkhmk4ZMO0CnSp-1" target="yPJ0pyhVDcXjvVdX8UPI-34" edge="1">
          <mxGeometry relative="1" as="geometry" />
        </mxCell>
        <mxCell id="ovzaOvgkhmk4ZMO0CnSp-1" value="Booking.App" style="ellipse;whiteSpace=wrap;html=1;aspect=fixed;" parent="1" vertex="1">
          <mxGeometry x="330" y="60" width="80" height="80" as="geometry" />
        </mxCell>
        <mxCell id="ovzaOvgkhmk4ZMO0CnSp-4" value="Startup Project" style="shape=note;strokeWidth=2;fontSize=14;size=20;whiteSpace=wrap;html=1;fillColor=#fff2cc;strokeColor=#d6b656;fontColor=#666600;" parent="1" vertex="1">
          <mxGeometry x="430" y="-20" width="110.00000000000001" height="80" as="geometry" />
        </mxCell>
        <mxCell id="ovzaOvgkhmk4ZMO0CnSp-5" value="BuildingBlocks&lt;br&gt;Application" style="ellipse;whiteSpace=wrap;html=1;aspect=fixed;" parent="1" vertex="1">
          <mxGeometry x="350" y="920" width="80" height="80" as="geometry" />
        </mxCell>
        <mxCell id="ovzaOvgkhmk4ZMO0CnSp-6" value="BuildingBlocks&lt;br&gt;Domain" style="ellipse;whiteSpace=wrap;html=1;aspect=fixed;" parent="1" vertex="1">
          <mxGeometry x="480" y="1000" width="80" height="80" as="geometry" />
        </mxCell>
        <mxCell id="ovzaOvgkhmk4ZMO0CnSp-7" value="BuildingBlocks&lt;br&gt;Infrastructure" style="ellipse;whiteSpace=wrap;html=1;aspect=fixed;" parent="1" vertex="1">
          <mxGeometry x="590" y="910" width="80" height="80" as="geometry" />
        </mxCell>
        <mxCell id="ovzaOvgkhmk4ZMO0CnSp-8" value="Domain" style="ellipse;whiteSpace=wrap;html=1;aspect=fixed;" parent="1" vertex="1">
          <mxGeometry x="140" y="520" width="80" height="80" as="geometry" />
        </mxCell>
        <mxCell id="ovzaOvgkhmk4ZMO0CnSp-9" value="Application" style="ellipse;whiteSpace=wrap;html=1;aspect=fixed;" parent="1" vertex="1">
          <mxGeometry x="40" y="410" width="80" height="80" as="geometry" />
        </mxCell>
        <mxCell id="yPJ0pyhVDcXjvVdX8UPI-9" style="edgeStyle=orthogonalEdgeStyle;rounded=0;orthogonalLoop=1;jettySize=auto;html=1;entryX=1;entryY=0.5;entryDx=0;entryDy=0;" parent="1" source="ovzaOvgkhmk4ZMO0CnSp-10" target="ovzaOvgkhmk4ZMO0CnSp-9" edge="1">
          <mxGeometry relative="1" as="geometry" />
        </mxCell>
        <mxCell id="ovzaOvgkhmk4ZMO0CnSp-10" value="Infrastructure" style="ellipse;whiteSpace=wrap;html=1;aspect=fixed;" parent="1" vertex="1">
          <mxGeometry x="240" y="410" width="80" height="80" as="geometry" />
        </mxCell>
        <mxCell id="yPJ0pyhVDcXjvVdX8UPI-1" value="BuildingBlocks&lt;br&gt;Presentation" style="ellipse;whiteSpace=wrap;html=1;aspect=fixed;" parent="1" vertex="1">
          <mxGeometry x="470" y="800" width="80" height="80" as="geometry" />
        </mxCell>
        <mxCell id="yPJ0pyhVDcXjvVdX8UPI-3" value="Presentation" style="ellipse;whiteSpace=wrap;html=1;aspect=fixed;" parent="1" vertex="1">
          <mxGeometry x="140" y="320" width="80" height="80" as="geometry" />
        </mxCell>
        <mxCell id="yPJ0pyhVDcXjvVdX8UPI-4" value="" style="endArrow=classic;html=1;rounded=0;exitX=0;exitY=0.5;exitDx=0;exitDy=0;" parent="1" source="ovzaOvgkhmk4ZMO0CnSp-1" target="yPJ0pyhVDcXjvVdX8UPI-3" edge="1">
          <mxGeometry width="50" height="50" relative="1" as="geometry">
            <mxPoint x="170" y="250" as="sourcePoint" />
            <mxPoint x="220" y="200" as="targetPoint" />
          </mxGeometry>
        </mxCell>
        <mxCell id="yPJ0pyhVDcXjvVdX8UPI-5" value="" style="endArrow=classic;html=1;rounded=0;exitX=0.325;exitY=0.963;exitDx=0;exitDy=0;exitPerimeter=0;entryX=0.5;entryY=0;entryDx=0;entryDy=0;" parent="1" source="ovzaOvgkhmk4ZMO0CnSp-1" target="ovzaOvgkhmk4ZMO0CnSp-10" edge="1">
          <mxGeometry width="50" height="50" relative="1" as="geometry">
            <mxPoint x="400" y="370" as="sourcePoint" />
            <mxPoint x="450" y="320" as="targetPoint" />
          </mxGeometry>
        </mxCell>
        <mxCell id="yPJ0pyhVDcXjvVdX8UPI-6" value="&amp;lt;&amp;lt;reference for configuration set up&amp;gt;&amp;gt;" style="text;html=1;strokeColor=none;fillColor=none;align=center;verticalAlign=middle;whiteSpace=wrap;rounded=0;rotation=-45;" parent="1" vertex="1">
          <mxGeometry x="280" y="280" width="140" height="30" as="geometry" />
        </mxCell>
        <mxCell id="yPJ0pyhVDcXjvVdX8UPI-7" value="" style="endArrow=classic;html=1;rounded=0;entryX=0.325;entryY=0;entryDx=0;entryDy=0;entryPerimeter=0;" parent="1" target="ovzaOvgkhmk4ZMO0CnSp-8" edge="1">
          <mxGeometry width="50" height="50" relative="1" as="geometry">
            <mxPoint x="110" y="475" as="sourcePoint" />
            <mxPoint x="160" y="425" as="targetPoint" />
          </mxGeometry>
        </mxCell>
        <mxCell id="yPJ0pyhVDcXjvVdX8UPI-8" value="" style="endArrow=classic;html=1;rounded=0;exitX=0.25;exitY=0.975;exitDx=0;exitDy=0;exitPerimeter=0;entryX=1;entryY=0;entryDx=0;entryDy=0;" parent="1" source="ovzaOvgkhmk4ZMO0CnSp-10" target="ovzaOvgkhmk4ZMO0CnSp-8" edge="1">
          <mxGeometry width="50" height="50" relative="1" as="geometry">
            <mxPoint x="340" y="560" as="sourcePoint" />
            <mxPoint x="390" y="510" as="targetPoint" />
          </mxGeometry>
        </mxCell>
        <mxCell id="yPJ0pyhVDcXjvVdX8UPI-10" value="" style="endArrow=classic;html=1;rounded=0;entryX=0.75;entryY=0;entryDx=0;entryDy=0;entryPerimeter=0;" parent="1" target="ovzaOvgkhmk4ZMO0CnSp-9" edge="1">
          <mxGeometry width="50" height="50" relative="1" as="geometry">
            <mxPoint x="140" y="370" as="sourcePoint" />
            <mxPoint x="190" y="320" as="targetPoint" />
          </mxGeometry>
        </mxCell>
        <mxCell id="yPJ0pyhVDcXjvVdX8UPI-11" value="&amp;lt;&amp;lt;reference for configuration set up&amp;gt;&amp;gt;" style="text;html=1;strokeColor=none;fillColor=none;align=center;verticalAlign=middle;whiteSpace=wrap;rounded=0;rotation=-45;" parent="1" vertex="1">
          <mxGeometry x="150" y="200" width="140" height="30" as="geometry" />
        </mxCell>
        <mxCell id="yPJ0pyhVDcXjvVdX8UPI-16" value="" style="endArrow=classic;html=1;rounded=0;exitX=0;exitY=1;exitDx=0;exitDy=0;entryX=1;entryY=0;entryDx=0;entryDy=0;" parent="1" source="yPJ0pyhVDcXjvVdX8UPI-1" target="ovzaOvgkhmk4ZMO0CnSp-5" edge="1">
          <mxGeometry width="50" height="50" relative="1" as="geometry">
            <mxPoint x="400" y="865" as="sourcePoint" />
            <mxPoint x="450" y="815" as="targetPoint" />
          </mxGeometry>
        </mxCell>
        <mxCell id="yPJ0pyhVDcXjvVdX8UPI-18" value="" style="endArrow=classic;html=1;rounded=0;entryX=0.05;entryY=0.213;entryDx=0;entryDy=0;entryPerimeter=0;" parent="1" target="ovzaOvgkhmk4ZMO0CnSp-6" edge="1">
          <mxGeometry width="50" height="50" relative="1" as="geometry">
            <mxPoint x="420" y="985" as="sourcePoint" />
            <mxPoint x="482" y="1015" as="targetPoint" />
          </mxGeometry>
        </mxCell>
        <mxCell id="yPJ0pyhVDcXjvVdX8UPI-20" value="" style="endArrow=classic;html=1;rounded=0;entryX=1;entryY=0.5;entryDx=0;entryDy=0;" parent="1" target="ovzaOvgkhmk4ZMO0CnSp-5" edge="1">
          <mxGeometry width="50" height="50" relative="1" as="geometry">
            <mxPoint x="590" y="960" as="sourcePoint" />
            <mxPoint x="640" y="910" as="targetPoint" />
          </mxGeometry>
        </mxCell>
        <mxCell id="yPJ0pyhVDcXjvVdX8UPI-21" value="" style="endArrow=classic;html=1;rounded=0;entryX=0.963;entryY=0.375;entryDx=0;entryDy=0;entryPerimeter=0;" parent="1" target="ovzaOvgkhmk4ZMO0CnSp-6" edge="1">
          <mxGeometry width="50" height="50" relative="1" as="geometry">
            <mxPoint x="605" y="985" as="sourcePoint" />
            <mxPoint x="655" y="935" as="targetPoint" />
          </mxGeometry>
        </mxCell>
        <mxCell id="yPJ0pyhVDcXjvVdX8UPI-22" value="Each module project is explicitly linked to its corresponding component in the Building Blocks" style="shape=note;strokeWidth=2;fontSize=14;size=20;whiteSpace=wrap;html=1;fillColor=#fff2cc;strokeColor=#d6b656;fontColor=#666600;" parent="1" vertex="1">
          <mxGeometry x="490" y="680" width="150" height="110" as="geometry" />
        </mxCell>
        <mxCell id="yPJ0pyhVDcXjvVdX8UPI-23" value="Domain" style="ellipse;whiteSpace=wrap;html=1;aspect=fixed;" parent="1" vertex="1">
          <mxGeometry x="510" y="520" width="80" height="80" as="geometry" />
        </mxCell>
        <mxCell id="yPJ0pyhVDcXjvVdX8UPI-24" value="Application" style="ellipse;whiteSpace=wrap;html=1;aspect=fixed;" parent="1" vertex="1">
          <mxGeometry x="410" y="410" width="80" height="80" as="geometry" />
        </mxCell>
        <mxCell id="yPJ0pyhVDcXjvVdX8UPI-25" style="edgeStyle=orthogonalEdgeStyle;rounded=0;orthogonalLoop=1;jettySize=auto;html=1;entryX=1;entryY=0.5;entryDx=0;entryDy=0;" parent="1" source="yPJ0pyhVDcXjvVdX8UPI-26" target="yPJ0pyhVDcXjvVdX8UPI-24" edge="1">
          <mxGeometry relative="1" as="geometry" />
        </mxCell>
        <mxCell id="yPJ0pyhVDcXjvVdX8UPI-26" value="Infrastructure" style="ellipse;whiteSpace=wrap;html=1;aspect=fixed;" parent="1" vertex="1">
          <mxGeometry x="610" y="410" width="80" height="80" as="geometry" />
        </mxCell>
        <mxCell id="yPJ0pyhVDcXjvVdX8UPI-27" value="Presentation" style="ellipse;whiteSpace=wrap;html=1;aspect=fixed;" parent="1" vertex="1">
          <mxGeometry x="510" y="320" width="80" height="80" as="geometry" />
        </mxCell>
        <mxCell id="yPJ0pyhVDcXjvVdX8UPI-28" value="" style="endArrow=classic;html=1;rounded=0;entryX=0.325;entryY=0;entryDx=0;entryDy=0;entryPerimeter=0;" parent="1" target="yPJ0pyhVDcXjvVdX8UPI-23" edge="1">
          <mxGeometry width="50" height="50" relative="1" as="geometry">
            <mxPoint x="480" y="475" as="sourcePoint" />
            <mxPoint x="530" y="425" as="targetPoint" />
          </mxGeometry>
        </mxCell>
        <mxCell id="yPJ0pyhVDcXjvVdX8UPI-29" value="" style="endArrow=classic;html=1;rounded=0;exitX=0.25;exitY=0.975;exitDx=0;exitDy=0;exitPerimeter=0;entryX=1;entryY=0;entryDx=0;entryDy=0;" parent="1" source="yPJ0pyhVDcXjvVdX8UPI-26" target="yPJ0pyhVDcXjvVdX8UPI-23" edge="1">
          <mxGeometry width="50" height="50" relative="1" as="geometry">
            <mxPoint x="710" y="560" as="sourcePoint" />
            <mxPoint x="760" y="510" as="targetPoint" />
          </mxGeometry>
        </mxCell>
        <mxCell id="yPJ0pyhVDcXjvVdX8UPI-30" value="" style="endArrow=classic;html=1;rounded=0;entryX=0.75;entryY=0;entryDx=0;entryDy=0;entryPerimeter=0;" parent="1" target="yPJ0pyhVDcXjvVdX8UPI-24" edge="1">
          <mxGeometry width="50" height="50" relative="1" as="geometry">
            <mxPoint x="510" y="370" as="sourcePoint" />
            <mxPoint x="560" y="320" as="targetPoint" />
          </mxGeometry>
        </mxCell>
        <mxCell id="yPJ0pyhVDcXjvVdX8UPI-31" value="Domain" style="ellipse;whiteSpace=wrap;html=1;aspect=fixed;" parent="1" vertex="1">
          <mxGeometry x="870" y="510" width="80" height="80" as="geometry" />
        </mxCell>
        <mxCell id="yPJ0pyhVDcXjvVdX8UPI-32" value="Application" style="ellipse;whiteSpace=wrap;html=1;aspect=fixed;" parent="1" vertex="1">
          <mxGeometry x="770" y="400" width="80" height="80" as="geometry" />
        </mxCell>
        <mxCell id="yPJ0pyhVDcXjvVdX8UPI-33" style="edgeStyle=orthogonalEdgeStyle;rounded=0;orthogonalLoop=1;jettySize=auto;html=1;entryX=1;entryY=0.5;entryDx=0;entryDy=0;" parent="1" source="yPJ0pyhVDcXjvVdX8UPI-34" target="yPJ0pyhVDcXjvVdX8UPI-32" edge="1">
          <mxGeometry relative="1" as="geometry" />
        </mxCell>
        <mxCell id="yPJ0pyhVDcXjvVdX8UPI-34" value="Infrastructure" style="ellipse;whiteSpace=wrap;html=1;aspect=fixed;" parent="1" vertex="1">
          <mxGeometry x="970" y="400" width="80" height="80" as="geometry" />
        </mxCell>
        <mxCell id="yPJ0pyhVDcXjvVdX8UPI-35" value="Presentation" style="ellipse;whiteSpace=wrap;html=1;aspect=fixed;" parent="1" vertex="1">
          <mxGeometry x="870" y="310" width="80" height="80" as="geometry" />
        </mxCell>
        <mxCell id="yPJ0pyhVDcXjvVdX8UPI-36" value="" style="endArrow=classic;html=1;rounded=0;entryX=0.325;entryY=0;entryDx=0;entryDy=0;entryPerimeter=0;" parent="1" target="yPJ0pyhVDcXjvVdX8UPI-31" edge="1">
          <mxGeometry width="50" height="50" relative="1" as="geometry">
            <mxPoint x="840" y="465" as="sourcePoint" />
            <mxPoint x="890" y="415" as="targetPoint" />
          </mxGeometry>
        </mxCell>
        <mxCell id="yPJ0pyhVDcXjvVdX8UPI-37" value="" style="endArrow=classic;html=1;rounded=0;exitX=0.25;exitY=0.975;exitDx=0;exitDy=0;exitPerimeter=0;entryX=1;entryY=0;entryDx=0;entryDy=0;" parent="1" source="yPJ0pyhVDcXjvVdX8UPI-34" target="yPJ0pyhVDcXjvVdX8UPI-31" edge="1">
          <mxGeometry width="50" height="50" relative="1" as="geometry">
            <mxPoint x="1070" y="550" as="sourcePoint" />
            <mxPoint x="1120" y="500" as="targetPoint" />
          </mxGeometry>
        </mxCell>
        <mxCell id="yPJ0pyhVDcXjvVdX8UPI-38" value="" style="endArrow=classic;html=1;rounded=0;entryX=0.75;entryY=0;entryDx=0;entryDy=0;entryPerimeter=0;" parent="1" target="yPJ0pyhVDcXjvVdX8UPI-32" edge="1">
          <mxGeometry width="50" height="50" relative="1" as="geometry">
            <mxPoint x="870" y="360" as="sourcePoint" />
            <mxPoint x="920" y="310" as="targetPoint" />
          </mxGeometry>
        </mxCell>
        <mxCell id="yPJ0pyhVDcXjvVdX8UPI-39" value="" style="endArrow=classic;html=1;rounded=0;entryX=0;entryY=0;entryDx=0;entryDy=0;exitX=0.688;exitY=0.975;exitDx=0;exitDy=0;exitPerimeter=0;" parent="1" source="ovzaOvgkhmk4ZMO0CnSp-1" target="yPJ0pyhVDcXjvVdX8UPI-27" edge="1">
          <mxGeometry width="50" height="50" relative="1" as="geometry">
            <mxPoint x="400" y="370" as="sourcePoint" />
            <mxPoint x="450" y="320" as="targetPoint" />
          </mxGeometry>
        </mxCell>
        <mxCell id="yPJ0pyhVDcXjvVdX8UPI-40" value="" style="endArrow=classic;html=1;rounded=0;entryX=0.688;entryY=0.038;entryDx=0;entryDy=0;entryPerimeter=0;" parent="1" target="yPJ0pyhVDcXjvVdX8UPI-26" edge="1">
          <mxGeometry width="50" height="50" relative="1" as="geometry">
            <mxPoint x="400" y="125" as="sourcePoint" />
            <mxPoint x="450" y="75" as="targetPoint" />
          </mxGeometry>
        </mxCell>
        <mxCell id="yPJ0pyhVDcXjvVdX8UPI-41" value="" style="endArrow=classic;html=1;rounded=0;entryX=0;entryY=0.375;entryDx=0;entryDy=0;entryPerimeter=0;" parent="1" target="yPJ0pyhVDcXjvVdX8UPI-35" edge="1">
          <mxGeometry width="50" height="50" relative="1" as="geometry">
            <mxPoint x="410" y="100" as="sourcePoint" />
            <mxPoint x="460" y="50" as="targetPoint" />
          </mxGeometry>
        </mxCell>
        <mxCell id="yPJ0pyhVDcXjvVdX8UPI-43" value="&amp;lt;&amp;lt;reference for configuration set up&amp;gt;&amp;gt;" style="text;html=1;strokeColor=none;fillColor=none;align=center;verticalAlign=middle;whiteSpace=wrap;rounded=0;rotation=-45;" parent="1" vertex="1">
          <mxGeometry x="400" y="210" width="140" height="30" as="geometry" />
        </mxCell>
        <mxCell id="yPJ0pyhVDcXjvVdX8UPI-44" value="&amp;lt;&amp;lt;reference for configuration set up&amp;gt;&amp;gt;" style="text;html=1;strokeColor=none;fillColor=none;align=center;verticalAlign=middle;whiteSpace=wrap;rounded=0;rotation=-45;" parent="1" vertex="1">
          <mxGeometry x="670" y="160" width="140" height="30" as="geometry" />
        </mxCell>
      </root>
    </mxGraphModel>
  </diagram>
</mxfile>
